<?xml version="1.0" encoding="UTF-8"?>
<svg id="Layer_1" data-name="Layer 1" xmlns="http://www.w3.org/2000/svg" viewBox="0 0 1081.53 343.01">
  <defs>
    <style>
      .cls-1 {
        fill: #3498db;
      }

      .cls-1, .cls-2, .cls-3 {
        stroke-width: 0px;
      }

      .cls-2 {
        fill: #fff;
      }

      .cls-3 {
        fill: #444;
      }
    </style>
  </defs>
  <g>
    <path class="cls-3" d="m258.39,215.69l35.93-80.87h18.49l36.28,80.87h-19.64l-29.69-71.4h7.51l-29.69,71.4h-19.18Zm18.14-17.33l4.74-14.21h41.82l4.85,14.21h-51.41Z"/>
    <path class="cls-3" d="m376.58,216.62c-5.31,0-10.4-.63-15.25-1.91-4.85-1.27-8.74-2.87-11.67-4.79l5.89-12.82c2.93,1.69,6.33,3.1,10.22,4.22,3.89,1.12,7.72,1.67,11.5,1.67,4.16,0,7.11-.5,8.84-1.5,1.73-1,2.6-2.39,2.6-4.16,0-1.46-.68-2.56-2.02-3.29-1.35-.73-3.12-1.29-5.31-1.67-2.2-.38-4.64-.77-7.34-1.16-2.7-.38-5.37-.92-8.03-1.62-2.66-.69-5.12-1.68-7.39-2.95-2.27-1.27-4.08-3.02-5.43-5.26-1.35-2.23-2.02-5.12-2.02-8.67,0-3.93,1.16-7.41,3.47-10.46,2.31-3.04,5.58-5.41,9.82-7.11,4.24-1.69,9.36-2.54,15.37-2.54,4.31,0,8.65.48,13,1.44,4.35.96,8.03,2.29,11.03,3.99l-6.12,12.82c-2.93-1.69-5.91-2.89-8.95-3.58-3.04-.69-5.95-1.04-8.72-1.04-4.16,0-7.16.54-9.01,1.62-1.85,1.08-2.77,2.47-2.77,4.16,0,1.54.69,2.71,2.08,3.52,1.39.81,3.2,1.41,5.43,1.79,2.23.39,4.7.77,7.39,1.16,2.7.39,5.35.92,7.97,1.62,2.62.69,5.06,1.68,7.34,2.95,2.27,1.27,4.08,3.02,5.43,5.26,1.35,2.24,2.02,5.12,2.02,8.67,0,3.78-1.16,7.15-3.47,10.11-2.31,2.97-5.64,5.3-9.99,6.99-4.35,1.69-9.65,2.54-15.89,2.54Z"/>
    <path class="cls-3" d="m437.81,216.62c-5.31,0-10.4-.63-15.25-1.91-4.85-1.27-8.74-2.87-11.67-4.79l5.89-12.82c2.93,1.69,6.33,3.1,10.22,4.22,3.89,1.12,7.72,1.67,11.5,1.67,4.16,0,7.11-.5,8.84-1.5,1.73-1,2.6-2.39,2.6-4.16,0-1.46-.68-2.56-2.02-3.29-1.35-.73-3.12-1.29-5.31-1.67-2.2-.38-4.64-.77-7.34-1.16-2.7-.38-5.37-.92-8.03-1.62-2.66-.69-5.12-1.68-7.39-2.95-2.27-1.27-4.08-3.02-5.43-5.26-1.35-2.23-2.02-5.12-2.02-8.67,0-3.93,1.16-7.41,3.47-10.46,2.31-3.04,5.58-5.41,9.82-7.11,4.24-1.69,9.36-2.54,15.37-2.54,4.31,0,8.65.48,13,1.44,4.35.96,8.03,2.29,11.03,3.99l-6.12,12.82c-2.93-1.69-5.91-2.89-8.95-3.58-3.04-.69-5.95-1.04-8.72-1.04-4.16,0-7.16.54-9.01,1.62-1.85,1.08-2.77,2.47-2.77,4.16,0,1.54.69,2.71,2.08,3.52,1.39.81,3.2,1.41,5.43,1.79,2.23.39,4.7.77,7.39,1.16,2.7.39,5.35.92,7.97,1.62,2.62.69,5.06,1.68,7.34,2.95,2.27,1.27,4.08,3.02,5.43,5.26,1.35,2.24,2.02,5.12,2.02,8.67,0,3.78-1.16,7.15-3.47,10.11-2.31,2.97-5.64,5.3-9.99,6.99-4.35,1.69-9.65,2.54-15.89,2.54Z"/>
    <path class="cls-3" d="m504.36,216.62c-5.24,0-9.86-1-13.86-3-4.01-2-7.13-5.08-9.36-9.24-2.23-4.16-3.35-9.4-3.35-15.71v-35.12h18.02v32.35c0,5.24,1.1,9.07,3.29,11.5,2.2,2.43,5.29,3.64,9.3,3.64,2.77,0,5.24-.62,7.39-1.85,2.16-1.23,3.87-3.08,5.14-5.55,1.27-2.46,1.91-5.54,1.91-9.24v-30.85h17.91v62.16h-17.1v-17.21l3.12,5.08c-2.16,4.31-5.24,7.57-9.24,9.76-4.01,2.2-8.4,3.29-13.17,3.29Z"/>
    <path class="cls-3" d="m557.39,215.69v-62.16h17.21v17.68l-2.43-5.2c1.85-4.39,4.81-7.72,8.9-9.99,4.08-2.27,9.05-3.41,14.9-3.41v16.75c-.69-.15-1.37-.27-2.02-.35-.66-.08-1.29-.12-1.91-.12-5.08,0-9.13,1.43-12.13,4.27-3,2.85-4.51,7.24-4.51,13.17v29.35h-18.02Z"/>
    <path class="cls-3" d="m636.3,216.62c-7.09,0-13.29-1.39-18.6-4.16-5.31-2.77-9.44-6.57-12.36-11.38-2.93-4.81-4.39-10.3-4.39-16.46s1.4-11.67,4.22-16.52c2.81-4.85,6.74-8.64,11.78-11.38,5.04-2.73,10.72-4.1,17.04-4.1s11.57,1.31,16.46,3.93c4.89,2.62,8.76,6.32,11.61,11.09,2.85,4.78,4.27,10.51,4.27,17.21,0,.69-.04,1.48-.12,2.37-.08.89-.16,1.71-.23,2.48h-50.49v-10.51h41.01l-7.05,3.12c.08-3.23-.54-6.05-1.85-8.43-1.31-2.39-3.12-4.25-5.43-5.6-2.31-1.35-5.01-2.02-8.09-2.02s-5.8.68-8.15,2.02c-2.35,1.35-4.18,3.23-5.49,5.66-1.31,2.43-1.96,5.3-1.96,8.61v2.77c0,3.47.77,6.47,2.31,9.01,1.54,2.54,3.66,4.49,6.35,5.83,2.7,1.35,5.93,2.02,9.7,2.02,3.23,0,6.1-.5,8.61-1.5,2.5-1,4.79-2.5,6.87-4.51l9.59,10.4c-2.85,3.23-6.43,5.72-10.74,7.45-4.31,1.73-9.28,2.6-14.9,2.6Z"/>
    <path class="cls-3" d="m679.63,215.69v-80.87h34.54c11.24,0,19.99,2.6,26.23,7.8,6.24,5.2,9.36,12.34,9.36,21.43,0,6.08-1.43,11.3-4.27,15.65-2.85,4.35-6.89,7.67-12.13,9.94-5.24,2.27-11.48,3.41-18.72,3.41h-24.72l8.55-8.09v30.73h-18.83Zm18.83-28.65l-8.55-8.9h23.68c5.7,0,10.01-1.23,12.94-3.7,2.93-2.46,4.39-5.93,4.39-10.4s-1.46-7.91-4.39-10.34c-2.93-2.43-7.24-3.64-12.94-3.64h-23.68l8.55-8.9v45.87Zm32.7,28.65l-20.33-29.35h20.1l20.33,29.35h-20.1Z"/>
    <path class="cls-3" d="m781.99,216.62c-4.78,0-8.9-.83-12.36-2.48s-6.14-3.91-8.03-6.76c-1.89-2.85-2.83-6.05-2.83-9.59s.9-6.83,2.72-9.65c1.81-2.81,4.68-4.99,8.61-6.53,3.93-1.54,9.09-2.31,15.48-2.31h16.41v10.4h-14.56c-4.24,0-7.15.69-8.72,2.08-1.58,1.39-2.37,3.12-2.37,5.2,0,2.31.9,4.14,2.72,5.49,1.81,1.35,4.25,2.02,7.34,2.02s5.83-.69,8.26-2.08c2.43-1.39,4.14-3.5,5.14-6.35l2.77,8.43c-1.31,3.85-3.7,6.84-7.16,8.95-3.47,2.12-7.93,3.18-13.4,3.18Zm18.95-.92v-12.13l-1.16-2.66v-21.72c0-3.85-1.18-6.85-3.52-9.01-2.35-2.16-5.95-3.24-10.8-3.24-3.31,0-6.57.52-9.76,1.56-3.2,1.04-5.95,2.45-8.26,4.22l-6.35-12.59c3.39-2.46,7.47-4.33,12.25-5.6,4.77-1.27,9.63-1.91,14.56-1.91,9.47,0,16.83,2.24,22.07,6.7,5.24,4.47,7.86,11.44,7.86,20.91v35.47h-16.87Z"/>
    <path class="cls-3" d="m826.7,167.4v-13.86h43.09v13.86h-43.09Zm32.81,49.22c-7.32,0-13.02-1.87-17.1-5.6-4.08-3.74-6.12-9.3-6.12-16.7v-54.53h18.14v54.19c0,2.62.67,4.66,2.02,6.12,1.35,1.46,3.18,2.19,5.49,2.19,2.93,0,5.39-.77,7.39-2.31l4.74,12.71c-1.77,1.31-3.95,2.29-6.53,2.95-2.58.65-5.26.98-8.03.98Z"/>
    <path class="cls-3" d="m913.01,216.62c-7.09,0-13.29-1.39-18.6-4.16-5.31-2.77-9.44-6.57-12.36-11.38-2.93-4.81-4.39-10.3-4.39-16.46s1.4-11.67,4.22-16.52c2.81-4.85,6.74-8.64,11.78-11.38,5.04-2.73,10.72-4.1,17.04-4.1s11.57,1.31,16.46,3.93c4.89,2.62,8.76,6.32,11.61,11.09,2.85,4.78,4.27,10.51,4.27,17.21,0,.69-.04,1.48-.12,2.37-.08.89-.16,1.71-.23,2.48h-50.49v-10.51h41.01l-7.05,3.12c.08-3.23-.54-6.05-1.85-8.43-1.31-2.39-3.12-4.25-5.43-5.6-2.31-1.35-5.01-2.02-8.09-2.02s-5.8.68-8.15,2.02c-2.35,1.35-4.18,3.23-5.49,5.66-1.31,2.43-1.96,5.3-1.96,8.61v2.77c0,3.47.77,6.47,2.31,9.01,1.54,2.54,3.66,4.49,6.35,5.83,2.7,1.35,5.93,2.02,9.7,2.02,3.23,0,6.1-.5,8.61-1.5,2.5-1,4.79-2.5,6.87-4.51l9.59,10.4c-2.85,3.23-6.43,5.72-10.74,7.45-4.31,1.73-9.28,2.6-14.9,2.6Z"/>
    <path class="cls-3" d="m975.97,216.62c-5.31,0-10.4-.63-15.25-1.91-4.85-1.27-8.74-2.87-11.67-4.79l5.89-12.82c2.93,1.69,6.33,3.1,10.22,4.22,3.89,1.12,7.72,1.67,11.5,1.67,4.16,0,7.11-.5,8.84-1.5,1.73-1,2.6-2.39,2.6-4.16,0-1.46-.68-2.56-2.02-3.29-1.35-.73-3.12-1.29-5.31-1.67-2.2-.38-4.64-.77-7.34-1.16-2.7-.38-5.37-.92-8.03-1.62-2.66-.69-5.12-1.68-7.39-2.95-2.27-1.27-4.08-3.02-5.43-5.26-1.35-2.23-2.02-5.12-2.02-8.67,0-3.93,1.16-7.41,3.47-10.46,2.31-3.04,5.58-5.41,9.82-7.11,4.24-1.69,9.36-2.54,15.37-2.54,4.31,0,8.65.48,13,1.44,4.35.96,8.03,2.29,11.03,3.99l-6.12,12.82c-2.93-1.69-5.91-2.89-8.95-3.58-3.04-.69-5.95-1.04-8.72-1.04-4.16,0-7.16.54-9.01,1.62-1.85,1.08-2.77,2.47-2.77,4.16,0,1.54.69,2.71,2.08,3.52,1.39.81,3.2,1.41,5.43,1.79,2.23.39,4.7.77,7.39,1.16,2.7.39,5.35.92,7.97,1.62,2.62.69,5.06,1.68,7.34,2.95,2.27,1.27,4.08,3.02,5.43,5.26,1.35,2.24,2.02,5.12,2.02,8.67,0,3.78-1.16,7.15-3.47,10.11-2.31,2.97-5.64,5.3-9.99,6.99-4.35,1.69-9.65,2.54-15.89,2.54Z"/>
  </g>
  <g>
    <path class="cls-1" d="m144.61,78.42s-13.63,2.75-43.2,10.37c-27.93,7.2-37.73,10.08-37.73,10.08,0,0-1.44,28.8,11.23,80.92,10.23,42.08,48.38,65.37,69.69,78.56,21.31-13.19,59.46-36.48,69.69-78.56,12.67-52.13,11.23-80.92,11.23-80.92,0,0-9.79-2.88-37.73-10.08-29.57-7.62-43.2-10.37-43.2-10.37h0Z"/>
    <path class="cls-2" d="m101.65,160.37c10.21.48,18.24,5.55,24.42,13.92.77,1.05,1.46,2.16,2.19,3.23,1.2,1.75,1.83,1.75,2.94-.06,3.13-5.11,6.4-10.13,9.94-14.97,14.7-20.14,33.05-36.37,53.77-50.05.93-.61,1.94-1.41,2.93-.23,1.04,1.24.04,2.19-.74,3.05-8.83,9.76-17.17,19.94-25,30.52-15.68,21.17-29.04,43.7-39.75,67.78-.42.94-.71,2.09-2.01,2.13-1.44.05-1.72-1.19-2.12-2.21-5.81-14.59-12.91-28.46-22.55-40.93-2.23-2.88-4.65-5.61-6.99-8.41-.65-.77-1.72-1.4-1.25-2.64.51-1.34,1.76-1.1,2.85-1.13.33,0,.65,0,1.37,0Z"/>
  </g>
</svg>