<?xml version="1.0" encoding="UTF-8"?>
<svg id="Layer_2" data-name="Layer 2" xmlns="http://www.w3.org/2000/svg" xmlns:xlink="http://www.w3.org/1999/xlink" viewBox="0 0 841.89 595.28">
  <defs>
    <style>
      .cls-1 {
        fill: #4e85ea;
      }

      .cls-1, .cls-2, .cls-3, .cls-4, .cls-5, .cls-6, .cls-7, .cls-8, .cls-9, .cls-10, .cls-11, .cls-12, .cls-13, .cls-14, .cls-15, .cls-16, .cls-17, .cls-18, .cls-19, .cls-20, .cls-21, .cls-22, .cls-23, .cls-24, .cls-25, .cls-26, .cls-27, .cls-28, .cls-29, .cls-30, .cls-31, .cls-32, .cls-33, .cls-34, .cls-35, .cls-36, .cls-37, .cls-38, .cls-39, .cls-40, .cls-41, .cls-42, .cls-43, .cls-44, .cls-45, .cls-46, .cls-47, .cls-48, .cls-49, .cls-50, .cls-51, .cls-52, .cls-53, .cls-54, .cls-55, .cls-56, .cls-57, .cls-58, .cls-59, .cls-60, .cls-61, .cls-62, .cls-63 {
        stroke-width: 0px;
      }

      .cls-2 {
        fill: #4c87e5;
      }

      .cls-3 {
        fill: #fefefe;
      }

      .cls-4, .cls-64 {
        fill: #27448a;
      }

      .cls-65 {
        clip-path: url(#clippath-11);
      }

      .cls-5 {
        fill: #5389eb;
      }

      .cls-6 {
        fill: #3d71d6;
      }

      .cls-7 {
        fill: #24427e;
      }

      .cls-8 {
        fill: #5f99fd;
      }

      .cls-9 {
        fill: #adcbff;
      }

      .cls-66, .cls-43 {
        fill: #6f98f4;
      }

      .cls-10 {
        fill: #a1c8ff;
      }

      .cls-11 {
        fill: #a5bbf5;
      }

      .cls-12 {
        fill: #ffc5ad;
      }

      .cls-13 {
        fill: #c5d8ff;
      }

      .cls-14 {
        fill: #507dd0;
      }

      .cls-15 {
        fill: #cadeff;
      }

      .cls-67, .cls-37 {
        fill: #77a4ff;
      }

      .cls-68 {
        clip-path: url(#clippath-2);
      }

      .cls-16 {
        fill: #d79a88;
      }

      .cls-69 {
        clip-path: url(#clippath-13);
      }

      .cls-17, .cls-70 {
        fill: #fdc8b6;
      }

      .cls-18 {
        fill: #6e9cf4;
      }

      .cls-20 {
        fill: #adc9fb;
      }

      .cls-71 {
        clip-path: url(#clippath-6);
      }

      .cls-21 {
        fill: #3a75d1;
      }

      .cls-22 {
        fill: #f2f7fe;
      }

      .cls-23 {
        fill: #6b94ec;
      }

      .cls-72 {
        clip-path: url(#clippath-7);
      }

      .cls-24 {
        fill: #7fa8f7;
      }

      .cls-73 {
        clip-path: url(#clippath-1);
      }

      .cls-74 {
        clip-path: url(#clippath-4);
      }

      .cls-25 {
        fill: #4c83ea;
      }

      .cls-26 {
        fill: #76a5f7;
      }

      .cls-27 {
        fill: #cddfff;
      }

      .cls-28 {
        fill: #4479e1;
      }

      .cls-29 {
        fill: #2b58b5;
      }

      .cls-75 {
        clip-path: url(#clippath-12);
      }

      .cls-30 {
        fill: #fff;
      }

      .cls-31 {
        fill: #accafe;
      }

      .cls-32 {
        fill: #6092ff;
      }

      .cls-33 {
        fill: #8ab1f6;
      }

      .cls-34 {
        fill: #3971ce;
      }

      .cls-35 {
        fill: #234d9f;
      }

      .cls-36 {
        fill: #c8d8f9;
      }

      .cls-38 {
        fill: #5e92f8;
      }

      .cls-39 {
        fill: #dfe4ff;
      }

      .cls-40 {
        fill: #c0e1ff;
      }

      .cls-41 {
        fill: #7ca7f6;
      }

      .cls-42 {
        fill: #5e98ff;
      }

      .cls-44 {
        fill: #f1f2f2;
      }

      .cls-76 {
        clip-path: url(#clippath-9);
      }

      .cls-45 {
        fill: #6b9bff;
      }

      .cls-46 {
        fill: #bfdcff;
      }

      .cls-77 {
        clip-path: url(#clippath);
      }

      .cls-47 {
        fill: #8bbbff;
      }

      .cls-48 {
        fill: #5f92fb;
      }

      .cls-49 {
        fill: #3e77de;
      }

      .cls-50 {
        fill: #98c6ff;
      }

      .cls-51 {
        fill: #3a6ed3;
      }

      .cls-52 {
        fill: #bbd3ff;
      }

      .cls-53 {
        fill: #264281;
      }

      .cls-78 {
        clip-path: url(#clippath-3);
      }

      .cls-54 {
        fill: #578ff2;
      }

      .cls-55 {
        fill: #ffc7b6;
      }

      .cls-79 {
        clip-path: url(#clippath-8);
      }

      .cls-56 {
        fill: #598bea;
      }

      .cls-57 {
        fill: #78a6f3;
      }

      .cls-58 {
        fill: #6099ff;
      }

      .cls-80 {
        clip-path: url(#clippath-5);
      }

      .cls-59 {
        fill: #aac6f6;
      }

      .cls-81 {
        clip-path: url(#clippath-10);
      }

      .cls-60 {
        fill: #3b70d6;
      }

      .cls-61 {
        fill: #4989f3;
      }

      .cls-62 {
        fill: #fffffc;
      }

      .cls-63 {
        fill: #477ae7;
      }
    </style>
    <clipPath id="clippath">
      <path class="cls-4" d="m497.66,395.82s18.41-16.95,79.19-27.2c0,0,6.51.77-.77,4.98-14.41,8.34-78.43,22.22-78.43,22.22Z"/>
    </clipPath>
    <clipPath id="clippath-1">
      <path class="cls-17" d="m565.62,281.65c0,.68,1.87,17.7.77,19.74-1.11,2.04-7.74,8.51-7.91,9.02s-5.79,15.49,13.11,14.47,21.79-4.77,21.79-4.77l16-20.94s-14.3-7.66-12.77-48.85l-30.98,31.32Z"/>
    </clipPath>
    <clipPath id="clippath-2">
      <path class="cls-43" d="m214.24,452.29v11.28s3.76,12.36,38.29,10.75c34.52-1.61,35.06-10.94,35.06-10.94v-11.09s-40.84,22.43-73.35,0Z"/>
    </clipPath>
    <clipPath id="clippath-3">
      <path class="cls-43" d="m212.8,433.47v11.28s3.76,12.36,38.29,10.75c34.52-1.61,35.06-10.94,35.06-10.94v-11.09s-40.84,22.43-73.35,0Z"/>
    </clipPath>
    <clipPath id="clippath-4">
      <path class="cls-43" d="m211.44,414.63v11.28s3.76,12.36,38.29,10.75c34.52-1.61,35.06-10.94,35.06-10.94v-11.09s-40.84,22.43-73.35,0Z"/>
    </clipPath>
    <clipPath id="clippath-5">
      <path class="cls-43" d="m216.66,397.59v11.28s3.76,12.36,38.29,10.75,35.06-10.94,35.06-10.94v-11.09s-40.84,22.43-73.35,0Z"/>
    </clipPath>
    <clipPath id="clippath-6">
      <path class="cls-43" d="m208.34,376.95v11.28s3.76,12.36,38.29,10.75c34.52-1.61,35.06-10.94,35.06-10.94v-11.09s-40.84,22.43-73.35,0Z"/>
    </clipPath>
    <clipPath id="clippath-7">
      <path class="cls-43" d="m210.17,360.62v10.72s3.57,11.74,36.38,10.21,33.32-10.4,33.32-10.4v-10.54s-38.81,21.32-69.7,0Z"/>
    </clipPath>
    <clipPath id="clippath-8">
      <path class="cls-43" d="m144.22,455.63v12.08s4.03,13.23,40.98,11.5c36.95-1.73,37.53-11.71,37.53-11.71v-11.87s-43.71,24.01-78.5,0Z"/>
    </clipPath>
    <clipPath id="clippath-9">
      <path class="cls-43" d="m141.43,439.03v12.08s4.03,13.23,40.98,11.5c36.95-1.73,37.53-11.71,37.53-11.71v-11.87s-43.71,24.01-78.5,0Z"/>
    </clipPath>
    <clipPath id="clippath-10">
      <path class="cls-43" d="m144.22,418.87v12.08s4.03,13.23,40.98,11.5c36.95-1.73,37.53-11.71,37.53-11.71v-11.87s-43.71,24.01-78.5,0Z"/>
    </clipPath>
    <clipPath id="clippath-11">
      <path class="cls-43" d="m156.11,405.13v10.72s3.57,11.74,36.38,10.21,33.32-10.4,33.32-10.4v-10.54s-38.81,21.32-69.7,0Z"/>
    </clipPath>
    <clipPath id="clippath-12">
      <path class="cls-43" d="m156.11,390.39v10.72s3.57,11.74,36.38,10.21,33.32-10.4,33.32-10.4v-10.54s-38.81,21.32-69.7,0Z"/>
    </clipPath>
    <clipPath id="clippath-13">
      <path class="cls-37" d="m174.76,461.15l3.47,18.31s21.62,10.38,40.17,3.4c18.55-6.98,24.17-11.74,24.17-11.74l-1.19-16-66.62,6.03Z"/>
    </clipPath>
  </defs>
  <path class="cls-18" d="m539.71,72.96s28.77,19.23,45.62,24.51,34.35,14.47,39.73,18.89l-21.34,42.04s-20.77-10.21-47.66-21.45c-26.89-11.23-39.15-22.47-39.15-22.47l22.81-41.53Z"/>
  <rect class="cls-57" x="671.45" y="204.02" width="79.15" height="58.72" rx="5.87" ry="5.87" transform="translate(124.85 -231.82) rotate(20.26)"/>
  <path class="cls-44" d="m688.6,244.26l37.39-26.58,8.58,3.17-37.39,26.58-8.58-3.17Zm9.4-14.99c-1.79-.66-3.26-1.64-4.4-2.92-1.14-1.29-1.85-2.83-2.13-4.62s-.03-3.74.74-5.84c.78-2.1,1.85-3.73,3.22-4.9,1.37-1.17,2.92-1.88,4.62-2.13,1.71-.25,3.46-.05,5.26.61,1.79.66,3.26,1.65,4.39,2.95,1.13,1.3,1.84,2.84,2.13,4.62.29,1.78.04,3.72-.73,5.82-.77,2.1-1.85,3.74-3.23,4.92-1.38,1.18-2.92,1.89-4.62,2.13s-3.45.02-5.25-.64Zm2.02-5.48c.58.21,1.21.09,1.89-.37.69-.46,1.34-1.53,1.97-3.23.62-1.69.83-2.94.6-3.73-.23-.79-.62-1.3-1.2-1.51-.54-.2-1.17-.07-1.87.38-.71.45-1.37,1.52-2,3.22-.62,1.69-.82,2.94-.57,3.74.24.8.63,1.3,1.18,1.5Zm17.84,31.86c-1.79-.66-3.26-1.64-4.4-2.92-1.14-1.29-1.85-2.83-2.13-4.62-.28-1.79-.03-3.74.74-5.84.78-2.1,1.85-3.73,3.22-4.9,1.37-1.17,2.91-1.88,4.62-2.13s3.46-.05,5.25.61c1.79.66,3.26,1.65,4.39,2.95,1.13,1.3,1.84,2.84,2.13,4.62.29,1.78.04,3.72-.73,5.82-.77,2.1-1.85,3.74-3.23,4.92-1.38,1.18-2.92,1.89-4.62,2.13-1.7.24-3.45.02-5.25-.64Zm2.02-5.48c.58.21,1.21.09,1.9-.37.69-.46,1.34-1.53,1.97-3.23.62-1.69.83-2.94.6-3.73-.23-.8-.63-1.3-1.2-1.51-.54-.2-1.17-.07-1.87.38-.71.45-1.37,1.52-2,3.22-.62,1.69-.82,2.94-.57,3.74.24.8.63,1.3,1.18,1.5Z"/>
  <circle class="cls-11" cx="156.98" cy="207.77" r="7.4"/>
  <circle class="cls-11" cx="134.9" cy="225" r="3.57"/>
  <circle class="cls-11" cx="163.03" cy="147.51" r="3.91"/>
  <path class="cls-11" d="m154.62,172.28c-6.05,1.11-7.99,8.22-8.1,8.66v.02s0,0-.02-.02c-.11-.44-2.04-7.55-8.09-8.66,6.05-1.11,7.98-8.22,8.09-8.66.01-.01.01-.02.01-.02v.02c.12.44,2.06,7.55,8.11,8.66Z"/>
  <path class="cls-11" d="m665.43,200.26c-6.05,1.11-7.98,8.22-8.09,8.66v.02s-.01-.01-.02-.02c-.11-.44-2.04-7.55-8.1-8.66,6.06-1.11,7.99-8.22,8.1-8.66.01-.01.01-.02.01-.02v.02c.12.44,2.05,7.55,8.1,8.66Z"/>
  <path class="cls-20" d="m249.51,188.44c-5.99,12.2-18.53,20.6-33.04,20.6-8.67,0-16.63-3-22.91-8.01l22.4-27.86,33.55,15.27Z"/>
  <path class="cls-63" d="m253.24,172.28c0,5.46-1.19,10.65-3.33,15.31l-33.44-15.31-6.06-36.27c1.97-.33,4-.5,6.06-.5,20.31,0,36.77,16.46,36.77,36.77Z"/>
  <path class="cls-20" d="m215.71,172.28h-36c0-17.83,12.69-32.69,29.52-36.05l6.48,36.05Z"/>
  <path class="cls-20" d="m215,173.17l-21.63,27.11c-7.72-6.55-12.69-16.25-12.95-27.11h34.58Z"/>
  <path class="cls-10" d="m166.94,377.81c-.17-.68-2.04-7.66-6.13-5.62-4.09,2.04-1.36,9.87-4.43,9.19s-22.98-31.83-36.43-20.77,3.74,22.81,3.74,22.81c0,0-32.17-12.6-35.57-1.53s7.49,24.34,28.26,25.19c0,0-12.43,7.83-6.81,16.17s33.19,9.53,49.87,0c16.68-9.53,7.49-45.45,7.49-45.45Z"/>
  <path class="cls-3" d="m155.15,404.13c-.23-.11-23.79-11.08-55-15.1l.13-.99c31.37,4.05,55.06,15.08,55.3,15.19l-.43.9Z"/>
  <path class="cls-3" d="m146.94,400.04h-1c.09-7.13-19.51-28.48-19.71-28.7l.74-.68c.82.89,20.06,21.87,19.97,29.37Z"/>
  <path class="cls-3" d="m123.4,418.48l-.08-1c.22-.02,21.97-1.8,28.9-11.87l.82.57c-7.2,10.46-28.74,12.23-29.65,12.3Z"/>
  <path class="cls-10" d="m130.85,300.53s-10.21-6.97-13.79-1.7-3.06,14.13-3.06,14.13c0,0-16-25.36-29.11-19.23s11.91,32.85,11.91,32.85c0,0-19.91-5.45-18.55,4.09s9.47,15.66,26.26,19.74c0,0-15.71,1.02-11.63,10.55s31.15,12.94,32.17,13.28,14.47-2.04,14.47-2.04l-8.68-71.67Z"/>
  <rect class="cls-3" x="116.77" y="333.9" width="18.41" height="1" transform="translate(-216.25 437.23) rotate(-86.08)"/>
  <path class="cls-3" d="m120.01,340.03c-11.16,0-30.07-3.56-30.27-3.6l.19-.98c.21.04,21.36,4.01,31.98,3.54l.04,1c-.61.03-1.26.04-1.94.04Z"/>
  <path class="cls-3" d="m127.02,357.33c-9.08,0-19.8-1.57-20.41-1.67l.15-.99c.2.03,19.39,2.85,28.13,1.04l-43.73-52.14.77-.64,44.76,53.37-.77.2c-2.32.6-5.49.82-8.89.82Z"/>
  <path class="cls-47" d="m627.81,175.98s11.06-38.13,34.04-38.64c0,0,3.23,19.57-34.04,38.64Z"/>
  <path class="cls-47" d="m627.8,175.86s-9.56-31.98,6.93-43.37c0,0,11.39,12.14-6.93,43.37Z"/>
  <path class="cls-47" d="m627.82,175.98s24.22-22.97,41.83-13.4c0,0-5.69,15.64-41.83,13.4Z"/>
  <path class="cls-33" d="m632.39,143.55c-1.21,9.76-3.29,20.6-4.41,30.38,0,0-.16,2.04-.16,2.04-.42-10.94,1.94-21.85,4.57-32.42h0Z"/>
  <path class="cls-33" d="m654.47,144.45c-4.27,5.33-8.74,10.48-13.21,15.64-3.87,4.59-9.84,10.71-13.3,15.51,3.39-5.91,8.2-10.94,12.55-16.17,4.51-5.13,9.12-10.17,13.97-14.98h0Z"/>
  <path class="cls-33" d="m628.81,175.86c8.71-3.37,18.77-6.55,27.54-9.77.6-.24,1.21-.48,1.82-.71-9.16,4.98-19.28,8-29.36,10.47h0Z"/>
  <circle class="cls-11" cx="681.77" cy="162.83" r="5.98"/>
  <circle class="cls-11" cx="715.11" cy="178.4" r="3.83"/>
  <circle class="cls-11" cx="689.58" cy="183.77" r="3.83"/>
  <path class="cls-27" d="m732.77,477.41l-397.48-28.55s-140.59,35.28-154.11,38.59c-13.52,3.31-23.25,3.92-21.09,6.39,2.16,2.46,95.71,17.68,144.37,23.32,48.67,5.64,250.55,32.32,265.03,31.04,9.21-.81,18.22-4.14,26.73-7.57,10.26-4.14,20.21-9.01,30.04-14.08,11.63-5.99,23.15-12.22,35-17.78,11.02-5.17,22.39-9.42,33.52-14.31,12.7-5.58,25.36-11.27,37.98-17.05Z"/>
  <circle class="cls-11" cx="650.26" cy="217.21" r="1.52"/>
  <circle class="cls-11" cx="678.09" cy="275.17" r="3.57"/>
  <circle class="cls-11" cx="696.47" cy="286.91" r="4.85"/>
  <path class="cls-10" d="m681.77,357.72s2.78-47.32,27.3-49.53c0,0,3.57-.68,2.89,7.49,0,0,10.55-28.6,21.11-21.45s0,18.72,0,18.72c0,0,19.57-21.12,30.98-12.43,11.4,8.69-18.04,24.88-18.04,24.88,0,0,8.17-1.04,8.17,5.94s-4.6,12.09-24.51,10.72c0,0,15.83,8.17-2.89,11.57-18.72,3.4-26.04.34-32.51,4.09s-12.49,0-12.49,0Z"/>
  <path class="cls-3" d="m684.9,356.02c18.24-17.31,44.33-38.56,68.26-46.47,0,0-4.8,1.98-4.8,1.98-11.02,4.99-21.2,11.62-31,18.68-11.25,8.03-21.99,16.79-32.46,25.81h0Z"/>
  <path class="cls-3" d="m724.22,310.57c-2.03,6.86-4.69,13.47-8,19.82,2.02-6.86,4.7-13.47,8-19.82h0Z"/>
  <path class="cls-3" d="m704.47,324.7c-.82,3.06-1.78,6.03-2.66,9.03-.77,2.98-1.96,5.98-1.69,9.11-1.08-3.05-.03-6.39.73-9.39.92-3.03,2.07-5.98,3.62-8.75h0Z"/>
  <path class="cls-3" d="m732.39,336.28c-6.55.03-13.52-.43-19.42-3.49,6.37,1.74,12.95,2.14,19.42,3.49h0Z"/>
  <path class="cls-3" d="m717.24,345.47c-5.89.94-12.63,1.2-17.92-1.97,5.79,1.84,11.92,1.52,17.92,1.97h0Z"/>
  <path class="cls-30" d="m541.31,78.37s25.9,17.02,40.94,21.49c15.28,4.54,31.64,13.94,36.43,17.83l-18.42,35.29s-16.81-10.7-41.49-19.63c-24.28-8.79-37.11-19.91-37.11-19.91l19.66-35.06Z"/>
  <circle class="cls-18" cx="618.56" cy="117.89" r="4.6"/>
  <circle class="cls-18" cx="601.71" cy="152.45" r="4.6"/>
  <circle class="cls-18" cx="522.98" cy="113.3" r="4.6"/>
  <circle class="cls-18" cx="541.28" cy="79.27" r="4.6"/>
  <circle class="cls-30" cx="541.28" cy="79.27" r="2.15"/>
  <circle class="cls-30" cx="522.98" cy="113.3" r="2.15"/>
  <circle class="cls-30" cx="601.71" cy="152.45" r="2.15"/>
  <circle class="cls-30" cx="618.56" cy="117.89" r="2.15"/>
  <path class="cls-38" d="m134.9,365.72c-.47-1.36-16.81-118.33-16.81-118.33l146.38-18.86,18.38,145.74s-137.19,7.12-138.21,7.12-9.74-15.66-9.74-15.66Z"/>
  <polygon class="cls-3" points="128.49 276.96 262.94 258.83 274.94 380.11 148.05 388.53 128.49 276.96"/>
  <circle class="cls-50" cx="154.05" cy="252.32" r="5.49"/>
  <path class="cls-28" d="m149.58,238.28l2.3,15.57s3.7,1.02,4.34,0c.64-1.02-.89-13.91-1.66-15.57s-4.98,0-4.98,0Z"/>
  <circle class="cls-50" cx="179.76" cy="248.82" r="5.49"/>
  <path class="cls-28" d="m175.29,234.77l2.3,15.57s3.7,1.02,4.34,0-.89-13.91-1.66-15.57-4.98,0-4.98,0Z"/>
  <circle class="cls-50" cx="204.85" cy="245.31" r="5.49"/>
  <path class="cls-28" d="m200.38,231.27l2.3,15.57s3.7,1.02,4.34,0-.89-13.91-1.66-15.57-4.98,0-4.98,0Z"/>
  <circle class="cls-50" cx="230.26" cy="242.18" r="5.49"/>
  <path class="cls-58" d="m512.69,420.03l-232.42-3.26c-5.4-.08-9.81-4.35-10.05-9.74l-13.78-304.59c-.26-5.78,4.33-10.62,10.12-10.67l222.26-1.72c5.36-.04,9.84,4.07,10.26,9.42l23.94,309.57c.46,5.99-4.32,11.08-10.32,10.99Z"/>
  <path class="cls-28" d="m225.79,228.14l2.3,15.57s3.7,1.02,4.34,0-.89-13.91-1.66-15.57-4.98,0-4.98,0Z"/>
  <circle class="cls-50" cx="256.56" cy="238.68" r="5.49"/>
  <path class="cls-28" d="m252.09,224.64l2.3,15.57s3.7,1.02,4.34,0-.89-13.91-1.66-15.57-4.98,0-4.98,0Z"/>
  <polygon class="cls-3" points="504.55 405.18 287.86 401.43 274.6 106.89 482.01 105.7 504.55 405.18"/>
  <path class="cls-19" d="m583.27,221.82c-27.48,0-42.98-27.3-43.15-27.6l-2.03-3.66,2.84,3.08c19.73,21.4,49.29,26.52,49.59,26.57l2.93.49-2.93.5c-2.5.43-4.92.62-7.24.62Zm-39.48-23.87c5.93,8.13,21.08,24.97,43.72,22.65-7.39-1.73-27.76-7.61-43.72-22.65Z"/>
  <path class="cls-35" d="m521.53,322.4s-17.57-9.91-12.72-34.44c4.85-24.54,6.35-29.25,1.65-41.32-4.71-12.07-20.28-47.56,24.65-71.05,0,0,12.26-16.09,48.77-12.77,36.51,3.32,39,60.77,54.35,75.32,15.35,14.55,22.27,15.57,23.15,37.02s1.39,16.85,10.58,28.6,7.4,34.45,0,41.87-150.43-23.23-150.43-23.23Z"/>
  <path class="cls-7" d="m527.35,210.24s-9.33,7.45-7.03,17.58,3.88,18.29,4.49,36.29c.61,18,3.8,47.28,8.08,47.45,4.28.17,37.27-22.76,37.27-22.76l-42.8-78.57Z"/>
  <path class="cls-7" d="m609.02,224.05s3.88-6.58,9.49,14.36c5.62,20.94,14.98,42.04,18.89,36.77s3.74-10.34,3.74-10.34c0,0,5.11,10.51,5.62,19.2.51,8.68-2.55,11.06,3.49,18.21,6.04,7.15,13.87,13.11,15.91,17.36s3.06,7.49,3.06,7.49c0,0-7.83-14.64-18.98-16.51-11.15-1.87-17.07-2.57-31.22-10.82-14.15-8.24-20.95-.76-23.68-46.71s13.66-29,13.66-29Z"/>
  <path class="cls-24" d="m564.13,126.3c-1.7-.83-3.25-1.83-4.65-3s-2.46-2.31-3.18-3.43l4.65-3.91c.69,1.04,1.55,2.02,2.58,2.94,1.02.92,2.1,1.66,3.22,2.21.66.32,1.2.53,1.62.63s.76.11,1.01.03c.25-.08.44-.24.55-.47.18-.37.12-.76-.18-1.17-.3-.41-.75-.85-1.35-1.33-.6-.47-1.25-.99-1.97-1.54-.71-.55-1.4-1.16-2.07-1.83-.67-.67-1.23-1.38-1.68-2.16s-.7-1.62-.75-2.55c-.05-.92.19-1.93.72-3.01.62-1.26,1.53-2.23,2.75-2.92,1.21-.69,2.67-1,4.38-.93,1.71.07,3.61.61,5.7,1.64,1.37.67,2.66,1.48,3.85,2.43,1.19.95,2.18,1.98,2.95,3.1l-4.49,3.96c-.76-1-1.55-1.85-2.36-2.56-.82-.71-1.67-1.29-2.56-1.72-.66-.32-1.21-.52-1.65-.59-.44-.07-.8-.05-1.05.06-.26.11-.45.29-.56.52-.17.35-.1.72.21,1.13.31.4.76.83,1.36,1.3.6.46,1.27.97,1.99,1.52.73.55,1.42,1.15,2.08,1.81.66.66,1.22,1.38,1.67,2.15.45.77.7,1.62.76,2.53.05.92-.18,1.91-.7,2.97-.61,1.24-1.52,2.2-2.73,2.89-1.22.69-2.67,1.01-4.38.95-1.7-.05-3.61-.6-5.72-1.63Zm-3.02,2.27l1.85-3.78,4.09,2.01-1.85,3.77-4.09-2.01Zm11.53-23.52l1.85-3.78,4.09,2.01-1.85,3.77-4.09-2.01Z"/>
  <circle class="cls-10" cx="765.41" cy="351.77" r="6.3"/>
  <circle class="cls-13" cx="318.36" cy="236.67" r="10.72"/>
  <circle class="cls-13" cx="320.13" cy="268.05" r="10.72"/>
  <circle class="cls-13" cx="323.1" cy="300.53" r="10.72"/>
  <circle class="cls-13" cx="324.06" cy="334.78" r="10.72"/>
  <path class="cls-15" d="m466,207.54h-160c-1.38,0-2.5-1.12-2.5-2.5s1.12-2.5,2.5-2.5h160c1.38,0,2.5,1.12,2.5,2.5s-1.12,2.5-2.5,2.5Z"/>
  <path class="cls-15" d="m472.81,231.03h-127.32c-1.38,0-2.5-1.12-2.5-2.5s1.12-2.5,2.5-2.5h127.32c1.38,0,2.5,1.12,2.5,2.5s-1.12,2.5-2.5,2.5Z"/>
  <path class="cls-15" d="m431.11,244.65h-83.57c-1.38,0-2.5-1.12-2.5-2.5s1.12-2.5,2.5-2.5h83.57c1.38,0,2.5,1.12,2.5,2.5s-1.12,2.5-2.5,2.5Z"/>
  <path class="cls-15" d="m472.81,261.33h-127.32c-1.38,0-2.5-1.12-2.5-2.5s1.12-2.5,2.5-2.5h127.32c1.38,0,2.5,1.12,2.5,2.5s-1.12,2.5-2.5,2.5Z"/>
  <path class="cls-15" d="m436.39,275.63h-90.89c-1.38,0-2.5-1.12-2.5-2.5s1.12-2.5,2.5-2.5h90.89c1.38,0,2.5,1.12,2.5,2.5s-1.12,2.5-2.5,2.5Z"/>
  <path class="cls-15" d="m418.34,298.1h-70.81c-1.38,0-2.5-1.12-2.5-2.5s1.12-2.5,2.5-2.5h70.81c1.38,0,2.5,1.12,2.5,2.5s-1.12,2.5-2.5,2.5Z"/>
  <path class="cls-15" d="m382.94,310.01h-35.4c-1.38,0-2.5-1.12-2.5-2.5s1.12-2.5,2.5-2.5h35.4c1.38,0,2.5,1.12,2.5,2.5s-1.12,2.5-2.5,2.5Z"/>
  <path class="cls-15" d="m380.64,333.64h-31.75c-1.38,0-2.5-1.12-2.5-2.5s1.12-2.5,2.5-2.5h31.75c1.38,0,2.5,1.12,2.5,2.5s-1.12,2.5-2.5,2.5Z"/>
  <path class="cls-15" d="m382.94,344.73h-35.4c-1.38,0-2.5-1.12-2.5-2.5s1.12-2.5,2.5-2.5h35.4c1.38,0,2.5,1.12,2.5,2.5s-1.12,2.5-2.5,2.5Z"/>
  <polygon class="cls-21" points="315.85 140.04 315.85 149.11 349.88 149.11 349.88 139.79 315.85 140.04"/>
  <rect class="cls-21" x="327.6" y="148.02" width="13.4" height="33.38"/>
  <polygon class="cls-21" points="347.96 181.4 360.47 139.79 374.39 139.79 390.22 181.4 378.98 181.4 375.15 172.15 361.11 172.28 358.68 181.4 347.96 181.4"/>
  <polygon class="cls-30" points="362.9 164.71 367.62 149.81 373.37 164.71 362.9 164.71"/>
  <path class="cls-8" d="m513.71,371.59s3.02,81.54-3.11,90.47l114.13,8.09s-11.74-1.97-6.13-22.26c5.62-20.3,18.22-25.91,21.75-44.81,3.53-18.89-1.84-70.3-1.84-70.3l-124.8,38.8Z"/>
  <path class="cls-51" d="m683.45,356.23s42.79,1.66,52.4,9.83,4,35.41,4,35.41l-16.09,75.93-43.2-3.44,2.9-117.73Z"/>
  <path class="cls-1" d="m683.54,356.51s27.08,1.37,36.69,9.48c9.61,8.11,4,35.13,4,35.13l-15.94,74.65-43.34-3.38,18.59-115.88Z"/>
  <path class="cls-49" d="m648.64,351.77s-32.68,96.85-33.53,103.83,3.71,14.82,4.85,14.56,80.94,5.18,80.94,5.18c0,0,23.15-100.09,9.87-110.13-13.28-10.04-62.13-13.45-62.13-13.45Z"/>
  <path class="cls-31" d="m551.43,301.35s-43.38,29.05-47.21,38.93c-1.52,3.91,1.96,61.56,10.13,61.89s68.77,9.12,82.72,3.02,16.43-11.02,22.68-31.71c6.26-20.69,17.83-38.69,17.83-38.69,0,0-6.43,7.79-5.43,28.22,1,20.43,10.54,53.79,10.54,53.79h-14.98s10.98,39.49-7.96,40.17l15.45,7.83,9.53-4.09s23.83,14.64,35.06,7.49,15.15-12.26,11.83-33.36-13.88-101.11-23.24-110.13c-9.36-9.02-49.34-24.95-49.34-24.95l-67.62,1.59Z"/>
  <path class="cls-61" d="m527.61,451.36l-93.02-1.44c-4.2-.06-7.93-2.71-9.38-6.65l-44.62-121.12c-2.45-6.65,2.49-13.71,9.58-13.68l94.02.37c4.28.02,8.09,2.71,9.53,6.75l43.62,122.18c2.39,6.68-2.64,13.69-9.73,13.58Z"/>
  <path class="cls-21" d="m389.58,139.79h13.53l6.7,13.4,5.3-13.4h12l-10.66,19.6,14.74,22.02h-13.28l-7.85-13.28-6.64,13.28s-12.38.45-12.19,0,10.66-21.64,10.66-21.64l-12.32-19.98Z"/>
  <path class="cls-60" d="m326,87.45v26.43c0,1.99,1.41,3.59,3.15,3.59h93.83c4.49,0,8.13-4.15,8.13-9.28v-20.74c0-1.99-1.41-3.59-3.15-3.59h-98.81c-1.74,0-3.15,1.61-3.15,3.59Z"/>
  <rect class="cls-42" x="330.17" y="83.85" width="100.94" height="29.45" rx="2.81" ry="2.81"/>
  <circle class="cls-42" cx="378.68" cy="81" r="18.72"/>
  <circle class="cls-3" cx="378.68" cy="81" r="7.3"/>
  <path class="cls-39" d="m154.1,286.4l92.62-11.72c4.95-.63,9.47,2.73,9.96,7.39l8.09,76.74c.49,4.66-3.22,8.77-8.2,9.08l-87.55,5.46c-4.5.28-8.5-2.67-9.28-6.83l-13.16-70.47c-.87-4.63,2.55-9.01,7.51-9.64Z"/>
  <g id="mob">
    <polygon class="cls-5" points="533.75 498.15 598.09 479.09 666.34 485.38 605.41 508.87 533.75 498.15"/>
    <polygon class="cls-34" points="532.73 498.32 532.73 505.3 606.43 513.98 669.07 492.02 668.22 485.21 605.41 508.87 532.73 498.32"/>
    <polygon class="cls-22" points="549.41 497.64 600.47 481.33 653.07 487.34 604.39 505.3 549.41 497.64"/>
  </g>
  <polygon class="cls-62" points="557.56 320.48 558.26 357.72 585.14 322.35 557.56 320.48"/>
  <path class="cls-59" d="m565.55,291.05s-22.53,9.19-27.38,32.94c0,0,8.43-8.43,9.7-8.43s-.04,9.74,9.92,17.23c0,0,18.04-34.33,7.76-41.74Z"/>
  <path class="cls-23" d="m509.07,364.53s10.8-19.13,10.89-21.69c.09-2.56,7.08,9.67-6.63,27.68l-4.26-5.99Z"/>
  <path class="cls-29" d="m406.4,309.66l2.04,7.99c.42,1.65,1.91,2.8,3.61,2.8h47.62c2.33,0,4.08-2.11,3.66-4.4l-1.68-9.16c-.33-1.8-1.92-3.09-3.75-3.05l-47.98,1.17c-2.39.06-4.11,2.33-3.52,4.64Z"/>
  <ellipse class="cls-29" cx="433.66" cy="303.77" rx="11.74" ry="9.87"/>
  <ellipse class="cls-3" cx="433.66" cy="303.77" rx="5.06" ry="4.26"/>
  <path class="cls-55" d="m397.79,379.21c-.64-.38-10.85-4.47-4.38-9.74,6.47-5.28,21.36,3.02,21.87,4.87s0,4.4-.94,4.4-16.55.47-16.55.47Z"/>
  <path class="cls-55" d="m402.85,396.28s-5.87-2.04-4.17-8.6c0,0,19.27-1.28,21.17.85s.09,7.74-4.37,8.26-12.63-.51-12.63-.51Z"/>
  <path class="cls-55" d="m403.38,402.15s-4.01-4.51-.52-5.87,10.86.64,11.94,1.72-.28,4.4-3.77,4.15-7.65,0-7.65,0Z"/>
  <path class="cls-55" d="m398.85,389.21c-1.19-1.02-9.7-4.6-1.79-10s21.96-.47,22.38,2.17c.43,2.64.97,7.26-1.05,7.04s-19.55.79-19.55.79Z"/>
  <g>
    <path class="cls-64" d="m497.66,395.82s18.41-16.95,79.19-27.2c0,0,6.51.77-.77,4.98-14.41,8.34-78.43,22.22-78.43,22.22Z"/>
    <g class="cls-77">
      <path class="cls-30" d="m495.95,394.68c.37,1.73.83,3.43,1.38,5.11.2.62.58,1.16,1.15,1.49.54.31,1.33.45,1.93.25s1.19-.57,1.49-1.15.46-1.28.25-1.93c-.55-1.68-1.01-3.38-1.38-5.11-.13-.59-.64-1.19-1.15-1.49s-1.33-.45-1.93-.25-1.19.57-1.49,1.15c-.32.61-.4,1.24-.25,1.93h0Z"/>
      <path class="cls-30" d="m567.79,369.95s-.08-.03-.1-.07c.05.04.1.09.14.14-.05-.07-.04-.06.03.04.04.06.07.11.11.17.16.26.3.52.46.78.35.6.69,1.2,1.03,1.8.67,1.19,1.31,2.38,1.94,3.59.25.48.92.62,1.37.36.48-.28.61-.89.36-1.37-.69-1.32-1.41-2.64-2.14-3.94-.36-.64-.73-1.28-1.1-1.92-.39-.67-.8-1.24-1.55-1.52-.51-.18-1.1.21-1.23.7-.15.56.19,1.05.7,1.23h0Z"/>
    </g>
  </g>
  <path class="cls-12" d="m512.98,386.74s7.83-13.19,20.77-14.04c0,0,22.13,6.13,24.68,10.89s13.79,18.55,16.85,20.09c3.06,1.53,52.91,14.99,52.91,14.99,0,0,9.38,36.98-7.63,38.23,0,0-42.91-28.03-49.2-28.88s-23.82-5.11-25.52-14.98c0,0-14.39.74-16.17.17-2.91-.94-3.83-7.21,1.49-8.03s8.38-1.67,8.38-1.67c0,0-9.87,1.87-14.3,2.89s-5.11-6.3-2.04-9.19c3.06-2.89,16.51-4.26,16.51-4.26,0,0-16.19,2.92-16.09,5.15.1,2.23-3.83,2.85-3.83,2.85,0,0-6.13-3.91-1.02-10.04,5.11-6.13,20.77-5.96,20.77-5.96,0,0-3.49-2.72-8.38-2.38s-5.77,3.06-9.33,3.06-8.84,1.1-8.84,1.1Z"/>
  <path class="cls-17" d="m531.03,197.72s-8.68,14.99-9.19,17.96-.68,18.12,2.04,22.04,2.04.51,2.72,10.04c.68,9.53,2.04,24,24.17,37.62,0,0,5.28,2.55,14.13,0,8.85-2.55,21.79-16,21.79-16l8.68-16.34s14.47,2.38,14.98-19.66c.51-22.04-15.32-10.81-16.85-3.83-1.53,6.98-3.91,10.55-4.43,10.55s-1.87-16.68-3.74-17.36-38.81-2.21-54.3-25.02Z"/>
  <path class="cls-53" d="m537.2,227.71c.1.04.19.09.26.15.51.42.59,1.39.79,1.98.17.5.52,1.66-.21,1.93-1.21.45-13.4-2.23-14.49,4.6.03-.22-.22-.7-.26-.93-.13-.74-.09-1.51.12-2.23.76-2.57,3.26-3.65,5.59-4.42,1.88-.62,3.84-.99,5.81-1.09.59-.03,1.73-.22,2.37.01Z"/>
  <path class="cls-53" d="m551.83,225.06l1.28,4.66c2.92-1.62,6.51-3.11,9.89-2.84,1.15.09,2.25.38,3.39.57,1.08.18,2.16.37,3.24.56,1.19.21,2.39.42,3.59.62-.07-.01-.38-.61-.43-.68-.51-.66-1.16-1.22-1.84-1.71-1.63-1.19-3.6-2.1-5.48-2.82-1.62-.61-3.34-1.02-5.07-.98-1.67.04-3.3.49-4.93.9-1.26.31-2.78.64-3.63,1.72Z"/>
  <path class="cls-53" d="m544.81,241.47c-.84,4.54-5.06,15.46,2.17,16.34-.81.12-1.65,0-2.44-.33-5.11-2.71-1.75-12.08.27-16.01h0Z"/>
  <path class="cls-53" d="m545.58,266.23c4.76,1.71,10.18,1.12,14.22-1.97.95-.65,1.84-1.49,2.72-2.24-3.45,5.71-11.29,7.96-16.95,4.21h0Z"/>
  <ellipse class="cls-53" cx="533.12" cy="242.12" rx="2.72" ry="5.3" transform="translate(-35.92 104.16) rotate(-10.8)"/>
  <ellipse class="cls-53" cx="561.7" cy="237.03" rx="2.72" ry="5.3" transform="translate(-34.46 109.43) rotate(-10.8)"/>
  <g>
    <path class="cls-70" d="m565.62,281.65c0,.68,1.87,17.7.77,19.74-1.11,2.04-7.74,8.51-7.91,9.02s-5.79,15.49,13.11,14.47,21.79-4.77,21.79-4.77l16-20.94s-14.3-7.66-12.77-48.85l-30.98,31.32Z"/>
    <g class="cls-73">
      <path class="cls-16" d="m564.9,285.38s18.04-10.1,25.53-23.05,0,0,0,0c0,0-16,30.43-22.25,33.12-6.26,2.69-3.28-10.07-3.28-10.07"/>
    </g>
  </g>
  <path class="cls-59" d="m601.01,286.91s6.02.31,7.46,1.05,10.13,9.68,10.13,9.68c0,0,4.6,17.11-4.6,31.4,0,0-10.04-12.77-13.96-11.74s-5.19,5.62-5.19,5.62l-28.91,23.87,39.4-50.15-4.33-9.72Z"/>
  <path class="cls-32" d="m574.37,339.83s23.32-18.43,24.09-21.37c.77-2.94-1.15-6.13,3.19-5.87s13.15,11.23,13.15,11.23c0,0,4.6-17.36,3.83-26.17,0,0,4.6,20.43-3.32,29.36,0,0-10.21-6.64-13.91-4.85s-27.03,17.67-27.03,17.67Z"/>
  <path class="cls-56" d="m547.49,305.3s-10.6,10.98-11.74,18.51c0,0,4.98.13,8.43-.64s9.28,5.02,9.28,5.02l1.23-.77s-5.02-7.11-6.68-12.43c0,0-3.45.51-8.68,5.87,0,0,5.36-12.38,8.17-15.57Z"/>
  <path class="cls-56" d="m566.78,294.7v8.5s-6.14,3.62-6.14,5.43v14.21s-5.5-3.62-2.59-12.96,8.73-15.19,8.73-15.19Z"/>
  <path class="cls-45" d="m640.35,416.65s17.53-3.54,21.35-.82,12.01,8.06,12.96,11.87c0,0-11.05-6.23-15.63-6.45,0,0,9.72,9.12,7.43,14.84,0,0-5.72-11.95-19.82-10.64l-6.29-8.8Z"/>
  <path class="cls-9" d="m622.43,417.27c-.78.36,12.01,9.85,8,21.71-4,11.86-10.48,18.29-10.48,18.29l13.15,9.65s17.15-5.63,18.87-19.3c1.72-13.67,2.67-20.1-3.24-25.53s-14.1-10.45-26.3-4.82Z"/>
  <path class="cls-46" d="m523.4,321.64s-16.21-11.23-7.02-31.91c0,0-2.43,21.83,8.3,30.89l-1.28,1.02Z"/>
  <path class="cls-14" d="m318.59,240.46c-.47,0-.94-.16-1.32-.5l-6.26-5.49c-.83-.73-.91-1.99-.18-2.82.73-.83,1.99-.91,2.82-.18l4.8,4.21,11.95-12.76c.76-.81,2.02-.85,2.83-.09.81.76.85,2.02.09,2.83l-13.28,14.17c-.39.42-.93.63-1.46.63Z"/>
  <path class="cls-14" d="m320.55,273.22c-.47,0-.94-.16-1.32-.5l-6.25-5.49c-.83-.73-.91-1.99-.18-2.82.73-.83,1.99-.91,2.82-.18l4.8,4.21,11.95-12.76c.75-.81,2.02-.85,2.83-.09.81.76.85,2.02.09,2.83l-13.28,14.17c-.39.42-.92.63-1.46.63Z"/>
  <path class="cls-14" d="m322.23,306.72c-.47,0-.94-.16-1.32-.5l-6.26-5.49c-.83-.73-.91-1.99-.18-2.82.73-.83,1.99-.91,2.82-.18l4.8,4.21,11.95-12.76c.76-.81,2.02-.85,2.83-.09.81.76.85,2.02.09,2.83l-13.28,14.17c-.39.42-.93.63-1.46.63Z"/>
  <path class="cls-14" d="m324.29,340.23c-.47,0-.94-.16-1.32-.5l-6.25-5.49c-.83-.73-.91-1.99-.18-2.82.73-.83,1.99-.91,2.82-.18l4.8,4.21,11.95-12.76c.75-.81,2.02-.85,2.83-.09.81.75.85,2.02.09,2.83l-13.28,14.17c-.39.42-.92.63-1.46.63Z"/>
  <path class="cls-52" d="m146.44,460.87s-27.5.99-27.16,6.62,28.09,9.38,41.19,9.04l-14.03-15.66Z"/>
  <g>
    <g>
      <g>
        <g>
          <path class="cls-66" d="m214.24,452.29v11.28s3.76,12.36,38.29,10.75c34.52-1.61,35.06-10.94,35.06-10.94v-11.09s-40.84,22.43-73.35,0Z"/>
          <g class="cls-68">
            <path class="cls-54" d="m220.07,458.25c0,4.18,0,8.36,0,12.54,0,1.31,1.15,2.56,2.5,2.5s2.5-1.1,2.5-2.5c0-4.18,0-8.36,0-12.54,0-1.31-1.15-2.56-2.5-2.5s-2.5,1.1-2.5,2.5h0Z"/>
            <path class="cls-54" d="m232.61,460.93v13.43c0,1.31,1.15,2.56,2.5,2.5s2.5-1.1,2.5-2.5v-13.43c0-1.31-1.15-2.56-2.5-2.5s-2.5,1.1-2.5,2.5h0Z"/>
            <path class="cls-54" d="m248.55,463.08v12.72c0,1.31,1.15,2.56,2.5,2.5s2.5-1.1,2.5-2.5v-12.72c0-1.31-1.15-2.56-2.5-2.5s-2.5,1.1-2.5,2.5h0Z"/>
            <path class="cls-54" d="m260.37,461.11c0,4.36,0,8.72,0,13.08,0,1.31,1.15,2.56,2.5,2.5s2.5-1.1,2.5-2.5c0-4.36,0-8.72,0-13.08,0-1.31-1.15-2.56-2.5-2.5s-2.5,1.1-2.5,2.5h0Z"/>
            <path class="cls-54" d="m268.97,460.57v11.1c0,1.31,1.15,2.56,2.5,2.5s2.5-1.1,2.5-2.5v-11.1c0-1.31-1.15-2.56-2.5-2.5s-2.5,1.1-2.5,2.5h0Z"/>
            <path class="cls-54" d="m277.74,456.28v15.4c0,1.31,1.15,2.56,2.5,2.5s2.5-1.1,2.5-2.5v-15.4c0-1.31-1.15-2.56-2.5-2.5s-2.5,1.1-2.5,2.5h0Z"/>
          </g>
        </g>
        <ellipse class="cls-40" cx="250.91" cy="449.29" rx="36.87" ry="12.5"/>
        <ellipse class="cls-41" cx="250.91" cy="449.29" rx="28.56" ry="9.68"/>
      </g>
      <g>
        <g>
          <path class="cls-66" d="m212.8,433.47v11.28s3.76,12.36,38.29,10.75c34.52-1.61,35.06-10.94,35.06-10.94v-11.09s-40.84,22.43-73.35,0Z"/>
          <g class="cls-78">
            <path class="cls-54" d="m218.62,439.43c0,4.18,0,8.36,0,12.54,0,1.31,1.15,2.56,2.5,2.5s2.5-1.1,2.5-2.5c0-4.18,0-8.36,0-12.54,0-1.31-1.15-2.56-2.5-2.5s-2.5,1.1-2.5,2.5h0Z"/>
            <path class="cls-54" d="m231.16,442.12v13.43c0,1.31,1.15,2.56,2.5,2.5s2.5-1.1,2.5-2.5v-13.43c0-1.31-1.15-2.56-2.5-2.5s-2.5,1.1-2.5,2.5h0Z"/>
            <path class="cls-54" d="m247.1,444.26v12.72c0,1.31,1.15,2.56,2.5,2.5s2.5-1.1,2.5-2.5v-12.72c0-1.31-1.15-2.56-2.5-2.5s-2.5,1.1-2.5,2.5h0Z"/>
            <path class="cls-54" d="m258.92,442.29c0,4.36,0,8.72,0,13.08,0,1.31,1.15,2.56,2.5,2.5s2.5-1.1,2.5-2.5c0-4.36,0-8.72,0-13.08,0-1.31-1.15-2.56-2.5-2.5s-2.5,1.1-2.5,2.5h0Z"/>
            <path class="cls-54" d="m267.52,441.76v11.1c0,1.31,1.15,2.56,2.5,2.5s2.5-1.1,2.5-2.5v-11.1c0-1.31-1.15-2.56-2.5-2.5s-2.5,1.1-2.5,2.5h0Z"/>
            <path class="cls-54" d="m276.3,437.46v15.4c0,1.31,1.15,2.56,2.5,2.5s2.5-1.1,2.5-2.5v-15.4c0-1.31-1.15-2.56-2.5-2.5s-2.5,1.1-2.5,2.5h0Z"/>
          </g>
        </g>
        <ellipse class="cls-40" cx="249.47" cy="430.47" rx="36.87" ry="12.5"/>
        <ellipse class="cls-41" cx="249.47" cy="430.47" rx="28.56" ry="9.68"/>
      </g>
      <g>
        <g>
          <path class="cls-66" d="m211.44,414.63v11.28s3.76,12.36,38.29,10.75c34.52-1.61,35.06-10.94,35.06-10.94v-11.09s-40.84,22.43-73.35,0Z"/>
          <g class="cls-74">
            <path class="cls-54" d="m217.27,420.59c0,4.18,0,8.36,0,12.54,0,1.31,1.15,2.56,2.5,2.5s2.5-1.1,2.5-2.5c0-4.18,0-8.36,0-12.54,0-1.31-1.15-2.56-2.5-2.5s-2.5,1.1-2.5,2.5h0Z"/>
            <path class="cls-54" d="m229.81,423.28v13.43c0,1.31,1.15,2.56,2.5,2.5s2.5-1.1,2.5-2.5v-13.43c0-1.31-1.15-2.56-2.5-2.5s-2.5,1.1-2.5,2.5h0Z"/>
            <path class="cls-54" d="m245.75,425.42v12.72c0,1.31,1.15,2.56,2.5,2.5s2.5-1.1,2.5-2.5v-12.72c0-1.31-1.15-2.56-2.5-2.5s-2.5,1.1-2.5,2.5h0Z"/>
            <path class="cls-54" d="m257.57,423.45c0,4.36,0,8.72,0,13.08,0,1.31,1.15,2.56,2.5,2.5s2.5-1.1,2.5-2.5c0-4.36,0-8.72,0-13.08,0-1.31-1.15-2.56-2.5-2.5s-2.5,1.1-2.5,2.5h0Z"/>
            <path class="cls-54" d="m266.17,422.92v11.1c0,1.31,1.15,2.56,2.5,2.5s2.5-1.1,2.5-2.5v-11.1c0-1.31-1.15-2.56-2.5-2.5s-2.5,1.1-2.5,2.5h0Z"/>
            <path class="cls-54" d="m274.94,418.62v15.4c0,1.31,1.15,2.56,2.5,2.5s2.5-1.1,2.5-2.5v-15.4c0-1.31-1.15-2.56-2.5-2.5s-2.5,1.1-2.5,2.5h0Z"/>
          </g>
        </g>
        <ellipse class="cls-40" cx="248.11" cy="411.63" rx="36.87" ry="12.5"/>
        <ellipse class="cls-41" cx="248.11" cy="411.63" rx="28.56" ry="9.68"/>
      </g>
      <g>
        <g>
          <path class="cls-66" d="m216.66,397.59v11.28s3.76,12.36,38.29,10.75,35.06-10.94,35.06-10.94v-11.09s-40.84,22.43-73.35,0Z"/>
          <g class="cls-80">
            <path class="cls-54" d="m222.49,403.55c0,4.18,0,8.36,0,12.54,0,1.31,1.15,2.56,2.5,2.5s2.5-1.1,2.5-2.5c0-4.18,0-8.36,0-12.54,0-1.31-1.15-2.56-2.5-2.5s-2.5,1.1-2.5,2.5h0Z"/>
            <path class="cls-54" d="m235.03,406.23v13.43c0,1.31,1.15,2.56,2.5,2.5s2.5-1.1,2.5-2.5v-13.43c0-1.31-1.15-2.56-2.5-2.5s-2.5,1.1-2.5,2.5h0Z"/>
            <path class="cls-54" d="m250.97,408.38v12.72c0,1.31,1.15,2.56,2.5,2.5s2.5-1.1,2.5-2.5v-12.72c0-1.31-1.15-2.56-2.5-2.5s-2.5,1.1-2.5,2.5h0Z"/>
            <path class="cls-54" d="m262.79,406.41c0,4.36,0,8.72,0,13.08,0,1.31,1.15,2.56,2.5,2.5s2.5-1.1,2.5-2.5c0-4.36,0-8.72,0-13.08,0-1.31-1.15-2.56-2.5-2.5s-2.5,1.1-2.5,2.5h0Z"/>
            <path class="cls-54" d="m271.39,405.88v11.1c0,1.31,1.15,2.56,2.5,2.5s2.5-1.1,2.5-2.5v-11.1c0-1.31-1.15-2.56-2.5-2.5s-2.5,1.1-2.5,2.5h0Z"/>
            <path class="cls-54" d="m280.17,401.58v15.4c0,1.31,1.15,2.56,2.5,2.5s2.5-1.1,2.5-2.5v-15.4c0-1.31-1.15-2.56-2.5-2.5s-2.5,1.1-2.5,2.5h0Z"/>
          </g>
        </g>
        <ellipse class="cls-40" cx="253.34" cy="394.59" rx="36.87" ry="12.5"/>
        <ellipse class="cls-41" cx="253.34" cy="394.59" rx="28.56" ry="9.68"/>
      </g>
      <g>
        <g>
          <path class="cls-66" d="m208.34,376.95v11.28s3.76,12.36,38.29,10.75c34.52-1.61,35.06-10.94,35.06-10.94v-11.09s-40.84,22.43-73.35,0Z"/>
          <g class="cls-71">
            <path class="cls-54" d="m214.17,382.91c0,4.18,0,8.36,0,12.54,0,1.31,1.15,2.56,2.5,2.5s2.5-1.1,2.5-2.5c0-4.18,0-8.36,0-12.54,0-1.31-1.15-2.56-2.5-2.5s-2.5,1.1-2.5,2.5h0Z"/>
            <path class="cls-54" d="m226.71,385.6v13.43c0,1.31,1.15,2.56,2.5,2.5s2.5-1.1,2.5-2.5v-13.43c0-1.31-1.15-2.56-2.5-2.5s-2.5,1.1-2.5,2.5h0Z"/>
            <path class="cls-54" d="m242.65,387.75v12.72c0,1.31,1.15,2.56,2.5,2.5s2.5-1.1,2.5-2.5v-12.72c0-1.31-1.15-2.56-2.5-2.5s-2.5,1.1-2.5,2.5h0Z"/>
            <path class="cls-54" d="m254.47,385.77v13.08c0,1.31,1.15,2.56,2.5,2.5s2.5-1.1,2.5-2.5v-13.08c0-1.31-1.15-2.56-2.5-2.5s-2.5,1.1-2.5,2.5h0Z"/>
            <path class="cls-54" d="m263.07,385.24v11.1c0,1.31,1.15,2.56,2.5,2.5s2.5-1.1,2.5-2.5v-11.1c0-1.31-1.15-2.56-2.5-2.5s-2.5,1.1-2.5,2.5h0Z"/>
            <path class="cls-54" d="m271.85,380.94v15.4c0,1.31,1.15,2.56,2.5,2.5s2.5-1.1,2.5-2.5v-15.4c0-1.31-1.15-2.56-2.5-2.5s-2.5,1.1-2.5,2.5h0Z"/>
          </g>
        </g>
        <ellipse class="cls-40" cx="245.02" cy="373.95" rx="36.87" ry="12.5"/>
        <ellipse class="cls-41" cx="245.02" cy="373.95" rx="28.56" ry="9.68"/>
      </g>
      <g>
        <path class="cls-66" d="m210.17,360.62v10.72s3.57,11.74,36.38,10.21,33.32-10.4,33.32-10.4v-10.54s-38.81,21.32-69.7,0Z"/>
        <g class="cls-72">
          <path class="cls-54" d="m215.58,366.28c0,3.97,0,7.94,0,11.91,0,1.31,1.15,2.56,2.5,2.5s2.5-1.1,2.5-2.5c0-3.97,0-7.94,0-11.91,0-1.31-1.15-2.56-2.5-2.5s-2.5,1.1-2.5,2.5h0Z"/>
          <path class="cls-54" d="m227.5,368.83v12.77c0,1.31,1.15,2.56,2.5,2.5s2.5-1.1,2.5-2.5v-12.77c0-1.31-1.15-2.56-2.5-2.5s-2.5,1.1-2.5,2.5h0Z"/>
          <path class="cls-54" d="m242.64,370.87v12.09c0,1.31,1.15,2.56,2.5,2.5s2.5-1.1,2.5-2.5v-12.09c0-1.31-1.15-2.56-2.5-2.5s-2.5,1.1-2.5,2.5h0Z"/>
          <path class="cls-54" d="m253.88,369v12.43c0,1.31,1.15,2.56,2.5,2.5s2.5-1.1,2.5-2.5v-12.43c0-1.31-1.15-2.56-2.5-2.5s-2.5,1.1-2.5,2.5h0Z"/>
          <path class="cls-54" d="m262.05,368.49v10.55c0,1.31,1.15,2.56,2.5,2.5s2.5-1.1,2.5-2.5v-10.55c0-1.31-1.15-2.56-2.5-2.5s-2.5,1.1-2.5,2.5h0Z"/>
          <path class="cls-54" d="m270.39,364.4v14.64c0,1.31,1.15,2.56,2.5,2.5s2.5-1.1,2.5-2.5v-14.64c0-1.31-1.15-2.56-2.5-2.5s-2.5,1.1-2.5,2.5h0Z"/>
        </g>
      </g>
      <ellipse class="cls-40" cx="245.02" cy="357.77" rx="35.04" ry="11.88"/>
      <ellipse class="cls-41" cx="245.02" cy="357.77" rx="27.14" ry="9.2"/>
    </g>
    <g>
      <g>
        <path class="cls-66" d="m144.22,455.63v12.08s4.03,13.23,40.98,11.5c36.95-1.73,37.53-11.71,37.53-11.71v-11.87s-43.71,24.01-78.5,0Z"/>
        <g class="cls-79">
          <path class="cls-54" d="m150.64,462c0,4.47,0,8.95,0,13.42,0,1.31,1.15,2.56,2.5,2.5s2.5-1.1,2.5-2.5c0-4.47,0-8.95,0-13.42,0-1.31-1.15-2.56-2.5-2.5s-2.5,1.1-2.5,2.5h0Z"/>
          <path class="cls-54" d="m164.06,464.88v14.38c0,1.31,1.15,2.56,2.5,2.5s2.5-1.1,2.5-2.5v-14.38c0-1.31-1.15-2.56-2.5-2.5s-2.5,1.1-2.5,2.5h0Z"/>
          <path class="cls-54" d="m181.12,467.18v13.61c0,1.31,1.15,2.56,2.5,2.5s2.5-1.1,2.5-2.5v-13.61c0-1.31-1.15-2.56-2.5-2.5s-2.5,1.1-2.5,2.5h0Z"/>
          <path class="cls-54" d="m193.77,465.07c0,4.66,0,9.33,0,13.99,0,1.31,1.15,2.56,2.5,2.5s2.5-1.1,2.5-2.5c0-4.66,0-9.33,0-13.99,0-1.31-1.15-2.56-2.5-2.5s-2.5,1.1-2.5,2.5h0Z"/>
          <path class="cls-54" d="m202.97,464.49v11.89c0,1.31,1.15,2.56,2.5,2.5s2.5-1.1,2.5-2.5v-11.89c0-1.31-1.15-2.56-2.5-2.5s-2.5,1.1-2.5,2.5h0Z"/>
          <path class="cls-54" d="m212.37,459.89v16.49c0,1.31,1.15,2.56,2.5,2.5s2.5-1.1,2.5-2.5v-16.49c0-1.31-1.15-2.56-2.5-2.5s-2.5,1.1-2.5,2.5h0Z"/>
        </g>
      </g>
      <ellipse class="cls-40" cx="183.48" cy="452.42" rx="39.47" ry="13.38"/>
      <ellipse class="cls-41" cx="183.48" cy="452.42" rx="30.56" ry="10.36"/>
      <g>
        <path class="cls-66" d="m141.43,439.03v12.08s4.03,13.23,40.98,11.5c36.95-1.73,37.53-11.71,37.53-11.71v-11.87s-43.71,24.01-78.5,0Z"/>
        <g class="cls-76">
          <path class="cls-54" d="m147.84,445.41c0,4.47,0,8.95,0,13.42,0,1.31,1.15,2.56,2.5,2.5s2.5-1.1,2.5-2.5c0-4.47,0-8.95,0-13.42,0-1.31-1.15-2.56-2.5-2.5s-2.5,1.1-2.5,2.5h0Z"/>
          <path class="cls-54" d="m161.26,448.28v14.38c0,1.31,1.15,2.56,2.5,2.5s2.5-1.1,2.5-2.5v-14.38c0-1.31-1.15-2.56-2.5-2.5s-2.5,1.1-2.5,2.5h0Z"/>
          <path class="cls-54" d="m178.32,450.58v13.61c0,1.31,1.15,2.56,2.5,2.5s2.5-1.1,2.5-2.5v-13.61c0-1.31-1.15-2.56-2.5-2.5s-2.5,1.1-2.5,2.5h0Z"/>
          <path class="cls-54" d="m190.97,448.47c0,4.66,0,9.33,0,13.99,0,1.31,1.15,2.56,2.5,2.5s2.5-1.1,2.5-2.5c0-4.66,0-9.33,0-13.99,0-1.31-1.15-2.56-2.5-2.5s-2.5,1.1-2.5,2.5h0Z"/>
          <path class="cls-54" d="m200.17,447.9v11.89c0,1.31,1.15,2.56,2.5,2.5s2.5-1.1,2.5-2.5v-11.89c0-1.31-1.15-2.56-2.5-2.5s-2.5,1.1-2.5,2.5h0Z"/>
          <path class="cls-54" d="m209.57,443.3v16.49c0,1.31,1.15,2.56,2.5,2.5s2.5-1.1,2.5-2.5v-16.49c0-1.31-1.15-2.56-2.5-2.5s-2.5,1.1-2.5,2.5h0Z"/>
        </g>
      </g>
      <ellipse class="cls-40" cx="180.68" cy="435.82" rx="39.47" ry="13.38"/>
      <ellipse class="cls-41" cx="180.68" cy="435.82" rx="30.56" ry="10.36"/>
      <g>
        <path class="cls-66" d="m144.22,418.87v12.08s4.03,13.23,40.98,11.5c36.95-1.73,37.53-11.71,37.53-11.71v-11.87s-43.71,24.01-78.5,0Z"/>
        <g class="cls-81">
          <path class="cls-54" d="m150.64,425.24c0,4.47,0,8.95,0,13.42,0,1.31,1.15,2.56,2.5,2.5s2.5-1.1,2.5-2.5c0-4.47,0-8.95,0-13.42,0-1.31-1.15-2.56-2.5-2.5s-2.5,1.1-2.5,2.5h0Z"/>
          <path class="cls-54" d="m164.06,428.12v14.38c0,1.31,1.15,2.56,2.5,2.5s2.5-1.1,2.5-2.5v-14.38c0-1.31-1.15-2.56-2.5-2.5s-2.5,1.1-2.5,2.5h0Z"/>
          <path class="cls-54" d="m181.12,430.42v13.61c0,1.31,1.15,2.56,2.5,2.5s2.5-1.1,2.5-2.5v-13.61c0-1.31-1.15-2.56-2.5-2.5s-2.5,1.1-2.5,2.5h0Z"/>
          <path class="cls-54" d="m193.77,428.31c0,4.66,0,9.33,0,13.99,0,1.31,1.15,2.56,2.5,2.5s2.5-1.1,2.5-2.5c0-4.66,0-9.33,0-13.99,0-1.31-1.15-2.56-2.5-2.5s-2.5,1.1-2.5,2.5h0Z"/>
          <path class="cls-54" d="m202.97,427.73v11.89c0,1.31,1.15,2.56,2.5,2.5s2.5-1.1,2.5-2.5v-11.89c0-1.31-1.15-2.56-2.5-2.5s-2.5,1.1-2.5,2.5h0Z"/>
          <path class="cls-54" d="m212.37,423.13v16.49c0,1.31,1.15,2.56,2.5,2.5s2.5-1.1,2.5-2.5v-16.49c0-1.31-1.15-2.56-2.5-2.5s-2.5,1.1-2.5,2.5h0Z"/>
        </g>
      </g>
      <ellipse class="cls-40" cx="183.48" cy="415.66" rx="39.47" ry="13.38"/>
      <ellipse class="cls-41" cx="183.48" cy="415.66" rx="30.56" ry="10.36"/>
      <g>
        <path class="cls-66" d="m156.11,405.13v10.72s3.57,11.74,36.38,10.21,33.32-10.4,33.32-10.4v-10.54s-38.81,21.32-69.7,0Z"/>
        <g class="cls-65">
          <path class="cls-54" d="m161.53,410.78v11.91c0,1.31,1.15,2.56,2.5,2.5s2.5-1.1,2.5-2.5v-11.91c0-1.31-1.15-2.56-2.5-2.5s-2.5,1.1-2.5,2.5h0Z"/>
          <path class="cls-54" d="m173.44,413.34v12.77c0,1.31,1.15,2.56,2.5,2.5s2.5-1.1,2.5-2.5v-12.77c0-1.31-1.15-2.56-2.5-2.5s-2.5,1.1-2.5,2.5h0Z"/>
          <path class="cls-54" d="m188.59,415.38v12.09c0,1.31,1.15,2.56,2.5,2.5s2.5-1.1,2.5-2.5v-12.09c0-1.31-1.15-2.56-2.5-2.5s-2.5,1.1-2.5,2.5h0Z"/>
          <path class="cls-54" d="m199.83,413.51v12.43c0,1.31,1.15,2.56,2.5,2.5s2.5-1.1,2.5-2.5v-12.43c0-1.31-1.15-2.56-2.5-2.5s-2.5,1.1-2.5,2.5h0Z"/>
          <path class="cls-54" d="m208,413v10.55c0,1.31,1.15,2.56,2.5,2.5s2.5-1.1,2.5-2.5v-10.55c0-1.31-1.15-2.56-2.5-2.5s-2.5,1.1-2.5,2.5h0Z"/>
          <path class="cls-54" d="m216.34,408.91v14.64c0,1.31,1.15,2.56,2.5,2.5s2.5-1.1,2.5-2.5v-14.64c0-1.31-1.15-2.56-2.5-2.5s-2.5,1.1-2.5,2.5h0Z"/>
        </g>
      </g>
      <ellipse class="cls-40" cx="190.96" cy="402.27" rx="35.04" ry="11.88"/>
      <g>
        <path class="cls-66" d="m156.11,390.39v10.72s3.57,11.74,36.38,10.21,33.32-10.4,33.32-10.4v-10.54s-38.81,21.32-69.7,0Z"/>
        <g class="cls-75">
          <path class="cls-54" d="m161.53,396.05v11.91c0,1.31,1.15,2.56,2.5,2.5s2.5-1.1,2.5-2.5v-11.91c0-1.31-1.15-2.56-2.5-2.5s-2.5,1.1-2.5,2.5h0Z"/>
          <path class="cls-54" d="m173.44,398.6v12.77c0,1.31,1.15,2.56,2.5,2.5s2.5-1.1,2.5-2.5v-12.77c0-1.31-1.15-2.56-2.5-2.5s-2.5,1.1-2.5,2.5h0Z"/>
          <path class="cls-54" d="m188.59,400.65v12.09c0,1.31,1.15,2.56,2.5,2.5s2.5-1.1,2.5-2.5v-12.09c0-1.31-1.15-2.56-2.5-2.5s-2.5,1.1-2.5,2.5h0Z"/>
          <path class="cls-54" d="m199.83,398.77v12.43c0,1.31,1.15,2.56,2.5,2.5s2.5-1.1,2.5-2.5v-12.43c0-1.31-1.15-2.56-2.5-2.5s-2.5,1.1-2.5,2.5h0Z"/>
          <path class="cls-54" d="m208,398.26v10.55c0,1.31,1.15,2.56,2.5,2.5s2.5-1.1,2.5-2.5v-10.55c0-1.31-1.15-2.56-2.5-2.5s-2.5,1.1-2.5,2.5h0Z"/>
          <path class="cls-54" d="m216.34,394.18v14.64c0,1.31,1.15,2.56,2.5,2.5s2.5-1.1,2.5-2.5v-14.64c0-1.31-1.15-2.56-2.5-2.5s-2.5,1.1-2.5,2.5h0Z"/>
        </g>
      </g>
      <ellipse class="cls-40" cx="190.96" cy="387.54" rx="35.04" ry="11.88"/>
      <ellipse class="cls-41" cx="190.96" cy="387.54" rx="27.14" ry="9.2"/>
    </g>
    <g>
      <path class="cls-25" d="m178.23,479.46s6.98,9.53,32.85,8.17c25.87-1.36,33.53-10.72,33.53-10.72v-22.47l-66.38,25.02Z"/>
      <g>
        <path class="cls-67" d="m174.76,461.15l3.47,18.31s21.62,10.38,40.17,3.4c18.55-6.98,24.17-11.74,24.17-11.74l-1.19-16-66.62,6.03Z"/>
        <g class="cls-69">
          <path class="cls-2" d="m182.12,464.65c-.05,3.05-.06,6.12.28,9.16.18,1.59.43,3.16.78,4.72.31,1.39.59,2.65.46,4.08-.12,1.35,1.23,2.5,2.5,2.5,1.45,0,2.38-1.15,2.5-2.5.26-2.97-.91-5.87-1.24-8.8-.34-3.04-.33-6.11-.28-9.16.02-1.35-1.17-2.5-2.5-2.5s-2.48,1.14-2.5,2.5h0Z"/>
          <path class="cls-2" d="m193.61,468.31c.19,5.36.38,10.72.58,16.08.05,1.31,1.12,2.56,2.5,2.5s2.55-1.1,2.5-2.5c-.19-5.36-.38-10.72-.58-16.08-.05-1.31-1.12-2.56-2.5-2.5s-2.55,1.1-2.5,2.5h0Z"/>
          <path class="cls-2" d="m206.96,468.9c.11,5.14.22,10.27.33,15.41.03,1.31,1.13,2.56,2.5,2.5s2.53-1.1,2.5-2.5c-.11-5.14-.22-10.27-.33-15.41-.03-1.31-1.13-2.56-2.5-2.5s-2.53,1.1-2.5,2.5h0Z"/>
          <path class="cls-2" d="m217.37,465.92c.03,5.68.67,11.36,1.87,16.92.29,1.32,1.83,2.09,3.08,1.75,1.36-.37,2.03-1.75,1.75-3.08-1.12-5.17-1.66-10.25-1.69-15.59,0-1.31-1.14-2.56-2.5-2.5s-2.51,1.1-2.5,2.5h0Z"/>
          <path class="cls-2" d="m229.81,462.44c.22,4.96.44,9.93.66,14.89.06,1.3,1.11,2.56,2.5,2.5,1.31-.06,2.56-1.1,2.5-2.5-.22-4.96-.44-9.93-.66-14.89-.06-1.3-1.11-2.56-2.5-2.5-1.31.06-2.56,1.1-2.5,2.5h0Z"/>
        </g>
      </g>
      <ellipse class="cls-40" cx="209.24" cy="452.94" rx="36.61" ry="18.37" transform="translate(-36.35 18.64) rotate(-4.69)"/>
      <ellipse class="cls-41" cx="209.24" cy="452.94" rx="27.14" ry="13.61" transform="translate(-36.35 18.64) rotate(-4.69)"/>
    </g>
  </g>
  <g id="laptop">
    <polygon class="cls-48" points="424.17 473.3 528.73 481.21 439.49 501.38 424.17 473.3"/>
    <path class="cls-6" d="m441.03,498.06l6,9.96,83.62-18.51s2.16-8.19-2.43-8.18-87.19,16.74-87.19,16.74Z"/>
    <polygon class="cls-26" points="255.79 388.53 294.85 496.53 447.03 507.26 395.96 401.04 386 394.1 255.79 388.53"/>
    <ellipse class="cls-36" cx="338.91" cy="445.53" rx="8.17" ry="10.6" transform="translate(-201.49 299.5) rotate(-37.62)"/>
    <path class="cls-6" d="m255.79,388.53l-.58,3.99,38.95,100.14s1.02,3.57,4.69,4.18,149.62,11.18,149.62,11.18l-5.62-10.04s-141.56-4.5-144.31-6.34-42.75-103.11-42.75-103.11Z"/>
    <polygon class="cls-6" points="395.2 400.53 398.04 397.36 444.01 499.92 440.43 499.92 395.2 400.53"/>
    <path class="cls-27" d="m255.79,388.52s2.51-3.75,3.83-3.75,129.15,5.96,129.15,5.96l9.6,6.87-3.18,2.94s-8.45-6.13-10.21-6.13-89.74-3.96-129.19-5.88Z"/>
  </g>
</svg>