<svg width="145" height="88" viewBox="0 0 145 88" fill="none" xmlns="http://www.w3.org/2000/svg">
<g clip-path="url(#clip0_372_2)">
<mask id="mask0_372_2" style="mask-type:luminance" maskUnits="userSpaceOnUse" x="0" y="0" width="145" height="88">
<path d="M145 0H0V88H145V0Z" fill="white"/>
</mask>
<g mask="url(#mask0_372_2)">
<path d="M144.873 46.6635C137.986 31.2974 130.872 15.4264 124 0.0952959L123.854 0.0912316V0.0253906H110.546L89.4648 47.3365H102.574L109.986 30.999L115.794 38.861L128.531 38.9041L132.361 47.326L144.999 47.3365V47.2707L144.871 46.6627L144.873 46.6635ZM111.139 28.3728L117.365 14.3299L123.788 28.3728H111.139Z" fill="#0E76BB"/>
<path d="M0 0.0255616V10.1968H14.2298V47.3367H26.0553C26.0627 47.3367 26.1541 47.2448 26.1541 47.2384V10.1968H37.9796L42.8215 0.0255616C28.5485 0.0271873 14.273 0.0247488 0 0.0255616Z" fill="#0E76BB"/>
<path d="M76.6168 30.0454C81.9163 28.6969 85.659 25.261 86.9142 19.8962C89.3131 9.63478 83.416 0.397552 72.5319 0.0911074C68.464 0.0553419 64.4034 0.0342078 60.348 0.0268921C60.3945 0.0268921 60.4402 0.0260793 60.4867 0.0252664H59.701C58.0057 0.0228279 56.3112 0.0228279 54.6183 0.0252664H45.1914L45.224 47.3364H56.9508C56.9582 47.3364 57.0496 47.2446 57.0496 47.238V23.2541L74.1451 47.3364H88.5402L76.6168 30.0454ZM73.5548 19.4508C73.1647 19.7946 71.7996 20.5644 71.3131 20.5644H57.0503V10.3932H71.0492C71.5867 10.3932 72.9166 11.0296 73.354 11.3792C75.5684 13.1463 75.6776 17.5788 73.5548 19.4508Z" fill="#0E76BB"/>
<path d="M60.4883 0.0246247H69.3016C66.3719 -0.0143921 63.4318 -0.00138652 60.4883 0.0246247Z" fill="#0E76BB"/>
<path d="M72.5314 0.0253906H69.3008C70.3789 0.0400219 71.4558 0.0603432 72.5314 0.0912316V0.0253906Z" fill="#0E76BB"/>
<path d="M145.002 85.6574C144.248 88.721 139.943 88.4558 138.086 86.609L139.048 85.5967C139.956 86.3104 141.65 87.063 142.742 86.3923C143.281 86.0616 143.467 85.5754 143.293 84.9655C142.855 83.4446 139.379 83.5757 138.712 81.5226C138.489 80.8374 138.571 80.0157 138.953 79.4033C140.103 77.559 143.476 77.8145 144.908 79.2279C144.978 79.3887 144.112 80.0636 144.042 80.2821C143.931 80.2991 143.493 79.9234 143.313 79.8275C142.917 79.6163 142.325 79.4318 141.875 79.4209C140.973 79.3991 139.973 79.9562 140.309 80.9825C140.581 81.8127 142.19 82.1793 142.918 82.5191C143.895 82.9749 144.721 83.6619 145.002 84.7404V85.6592L145.002 85.6574Z" fill="#0E76BB"/>
<path d="M93.0448 79.5777C96.0219 76.5675 101.468 78.339 101.721 82.6686C102.007 87.5705 95.8368 89.8652 92.7239 86.1831C91.1216 84.2866 91.3194 81.3213 93.0448 79.5777ZM96.5018 79.5722C92.5219 79.7112 92.0929 85.6849 95.9709 86.4259C101.04 87.3951 101.593 79.3932 96.5018 79.5722Z" fill="#0E76BB"/>
<path d="M72.9297 87.8227V78.2422H77.0473C77.3592 78.2422 78.1909 78.4977 78.5082 78.6245C82.877 80.3712 82.3553 86.4541 77.8567 87.6448C77.7001 87.6861 77.1638 87.8227 77.0473 87.8227H72.9297ZM74.5769 86.445H76.7179C78.4731 86.445 79.9309 84.688 79.9182 82.999C79.9049 81.31 78.3924 79.6211 76.6518 79.6211H74.5763V86.4456L74.5769 86.445Z" fill="#0E76BB"/>
<path d="M136.963 78.2428V79.621H131.693V82.1797H136.205C136.213 82.1797 136.304 82.2714 136.304 82.278V83.4591C136.304 83.4663 136.212 83.5574 136.205 83.5574H131.693V86.4444H137.095V87.8227H130.047V78.2422H136.964L136.963 78.2428Z" fill="#0E76BB"/>
<path d="M62.0592 87.8226L66.0185 78.3472C66.0519 78.2755 66.1028 78.2555 66.1762 78.2416C66.6021 78.1627 67.2319 78.3035 67.6845 78.2373L71.6771 87.822H69.8989L68.9652 85.4703L64.7899 85.4539L64.6874 85.4994L63.7719 87.8208H62.0586L62.0592 87.8226ZM68.4501 84.1479L66.8363 80.1442L65.1564 84.1479H68.4501Z" fill="#0E76BB"/>
<path d="M121.942 87.8235H120.196L119.132 85.4717L114.958 85.4936C114.546 86.2298 114.359 87.097 113.938 87.8241H112.258L116.373 78.2394C116.655 78.2952 117.825 78.1514 117.957 78.3092L121.942 87.8241L121.942 87.8235ZM118.714 84.1487L117.001 80.1462L115.419 84.1487H118.714Z" fill="#0E76BB"/>
<path d="M110.49 80.5936C110.477 80.5863 110.443 80.4722 110.373 80.4194C107.719 78.4027 104.34 80.2416 104.691 83.5831C104.831 84.9274 106 86.1491 107.314 86.4161C108.674 86.6923 109.772 86.2371 110.767 85.3346C110.944 85.6114 111.653 86.0216 111.767 86.251C111.892 86.5005 110.88 87.1802 110.655 87.3101C107.503 89.1381 103.285 87.1602 103.036 83.4593C102.717 78.7182 108.453 76.3064 111.729 79.5934L110.713 80.5438C110.653 80.5966 110.566 80.6379 110.489 80.5942L110.49 80.5936Z" fill="#0E76BB"/>
<path d="M83.668 78.2422L86.5674 85.7228L89.5978 78.2422H91.3111L87.3281 87.8275C87.0521 87.7723 85.8733 87.9143 85.7435 87.7577L81.8242 78.2422H83.6692H83.668Z" fill="#0E76BB"/>
<path d="M128.599 78.2422V79.6204H125.569V87.8227H123.988V79.6204H121.023V78.2422H128.599Z" fill="#0E76BB"/>
<path d="M32.4784 72.7315H36.662L41.0096 66.827L48.0258 76.2096H0V52.3242H30.8647L38.7522 63.7603L38.9324 64.1032L32.4784 72.7315ZM16.6675 55.8016H3.0961V58.9513H8.03676V72.7315H11.726V58.9513H16.6667V55.8016H16.6675ZM14.889 72.7315H18.7756L20.1895 69.1836L27.0033 69.1963L28.3617 72.7327H32.3471L25.3994 55.7975C24.3135 55.9007 23.027 55.6772 21.9672 55.7983C21.8726 55.8089 21.7934 55.8048 21.7461 55.9056L14.889 72.7315Z" fill="#0E76BB"/>
<path d="M25.8917 66.2337H21.1484L23.5853 60L25.8917 66.2337Z" fill="#0E76BB"/>
<path d="M144.999 52.3242V76.2096H60.542V86.5778L52.6725 76.3383C52.5868 76.2266 52.4098 76.1774 52.3078 76.0445C49.2632 72.0894 46.3392 68.039 43.3075 64.0729L49.5405 55.8016H45.2582C43.9961 57.6817 42.5912 59.4699 41.272 61.3133L35.1133 52.325H145L144.999 52.3242ZM72.9935 72.7315L68.7831 66.4574C68.7558 66.3694 68.8292 66.35 68.8899 66.3148C69.6355 65.8833 70.2033 65.7267 70.8525 65.0548C74.182 61.6174 71.6449 55.8877 66.9017 55.7991L58.6305 55.8016V72.7315H62.2538V66.8913H64.9215L68.8079 72.7315H72.9917H72.9935ZM88.1451 55.8016H75.6278V72.7315H88.4084V69.5817H79.4166C79.4093 69.5817 79.3177 69.49 79.3177 69.4834V65.5137H86.9596V62.5605H79.4166C79.4093 62.5605 79.3177 62.4689 79.3177 62.4622V59.0497C79.3177 59.0424 79.4099 58.9513 79.4166 58.9513H88.1451V55.8016ZM95.1949 55.8016H91.5056V72.7315H103.496V69.4512H95.1949V55.8024V55.8016ZM109.753 55.8016H105.998V72.7315H109.753V55.8016ZM126.289 55.8016H113.838V72.7315H126.553V69.5817H117.527V65.5137H125.103V62.5605H117.527V58.9513H126.289V55.8016ZM141.903 55.8016H129.649V72.7315H133.338V66.3663H140.65V63.2821H133.338V58.9513H141.903V55.8016Z" fill="#59595C"/>
<path d="M62.2551 58.8848H66.3722C66.9066 58.8848 67.8203 59.4513 68.1455 59.8748C69.4014 61.5096 68.2371 64.0689 66.1744 64.0689H62.3528C62.3455 64.0689 62.2539 63.9772 62.2539 63.9706V58.8856L62.2551 58.8848Z" fill="#59595C"/>
</g>
</g>
<defs>
<clipPath id="clip0_372_2">
<rect width="145" height="88" fill="white"/>
</clipPath>
</defs>
</svg>
